# xmcd
#
# Track frame offsets: 
#        150
#        12892
#        22857
#        35177
#        46837
#        58062
#        71857
#        82742
#        90565
#        102655
#        111972
#        124857
#        136335
#        148132
#        158615
#        170115
#        182045
#        198752
#
# Disc length: 2811 seconds
#
# Revision: 1
# Processed by: cddbd v1.5.2PL0 Copyright (c) Steve Scherf et al.
# Submitted via: ExactAudioCopy v0.99pb4
#
DISCID=f80af912
DTITLE=Mighty Sam McClain - Papa True Love - The Amy Sessions
DYEAR=2000
DGENRE=Blues
TTITLE0=Fannie Mae
TTITLE1=Baby Come On Home
TTITLE2=Georgia Pines
TTITLE3=In The Same Old Way
TTITLE4=I Need A Lot Of Lovin'
TTITLE5=I'm A Man
TTITLE6=Nothing But The Truth
TTITLE7=Silent Tears
TTITLE8=Sweet Dreams (Of You)
TTITLE9=Good Humor Man
TTITLE10=Just Like Old Times
TTITLE11=Talk To Me, Talk To Me
TTITLE12=Badmouthin'
TTITLE13=A Stranger To Me (previously unissied)
TTITLE14=I Who Have Nothing
TTITLE15=Papa True Love
TTITLE16=I Just Came To Get My Baby (Out Of Jail)
TTITLE17=When She Touches Me (Nothing Else Matters)
EXTD=YEAR: 2000
EXTT0=
EXTT1=
EXTT2=
EXTT3=
EXTT4=
EXTT5=
EXTT6=
EXTT7=
EXTT8=
EXTT9=
EXTT10=
EXTT11=
EXTT12=
EXTT13=
EXTT14=
EXTT15=
EXTT16=
EXTT17=
PLAYORDER=
